<mxfile host="app.diagrams.net" agent="Mozilla/5.0 (Windows NT 10.0; Win64; x64) AppleWebKit/537.36 (KHTML, like Gecko) Chrome/136.0.0.0 Safari/537.36" version="27.0.3">
  <diagram id="C5RBs43oDa-KdzZeNtuy" name="Page-1">
    <mxGraphModel dx="2903" dy="1091" grid="1" gridSize="10" guides="1" tooltips="1" connect="1" arrows="1" fold="1" page="1" pageScale="1" pageWidth="827" pageHeight="1169" math="0" shadow="0">
      <root>
        <mxCell id="WIyWlLk6GJQsqaUBKTNV-0" />
        <mxCell id="WIyWlLk6GJQsqaUBKTNV-1" parent="WIyWlLk6GJQsqaUBKTNV-0" />
        <mxCell id="6OrRu1Nc6FHOVrgIj3RX-28" style="edgeStyle=orthogonalEdgeStyle;rounded=0;orthogonalLoop=1;jettySize=auto;html=1;exitX=0.75;exitY=1;exitDx=0;exitDy=0;" edge="1" parent="WIyWlLk6GJQsqaUBKTNV-1" source="6OrRu1Nc6FHOVrgIj3RX-0">
          <mxGeometry relative="1" as="geometry">
            <mxPoint x="430" y="390" as="targetPoint" />
            <Array as="points">
              <mxPoint x="240" y="320" />
              <mxPoint x="430" y="320" />
            </Array>
          </mxGeometry>
        </mxCell>
        <mxCell id="6OrRu1Nc6FHOVrgIj3RX-37" style="edgeStyle=orthogonalEdgeStyle;rounded=0;orthogonalLoop=1;jettySize=auto;html=1;exitX=0.25;exitY=1;exitDx=0;exitDy=0;entryX=0.5;entryY=0;entryDx=0;entryDy=0;" edge="1" parent="WIyWlLk6GJQsqaUBKTNV-1" source="6OrRu1Nc6FHOVrgIj3RX-0" target="6OrRu1Nc6FHOVrgIj3RX-33">
          <mxGeometry relative="1" as="geometry" />
        </mxCell>
        <mxCell id="6OrRu1Nc6FHOVrgIj3RX-38" style="edgeStyle=orthogonalEdgeStyle;rounded=0;orthogonalLoop=1;jettySize=auto;html=1;exitX=0.5;exitY=1;exitDx=0;exitDy=0;entryX=0.5;entryY=0;entryDx=0;entryDy=0;" edge="1" parent="WIyWlLk6GJQsqaUBKTNV-1" source="6OrRu1Nc6FHOVrgIj3RX-0" target="6OrRu1Nc6FHOVrgIj3RX-29">
          <mxGeometry relative="1" as="geometry" />
        </mxCell>
        <mxCell id="6OrRu1Nc6FHOVrgIj3RX-0" value="User" style="swimlane;fontStyle=1;align=center;verticalAlign=top;childLayout=stackLayout;horizontal=1;startSize=26;horizontalStack=0;resizeParent=1;resizeParentMax=0;resizeLast=0;collapsible=1;marginBottom=0;whiteSpace=wrap;html=1;" vertex="1" parent="WIyWlLk6GJQsqaUBKTNV-1">
          <mxGeometry x="120" y="90" width="160" height="180" as="geometry" />
        </mxCell>
        <mxCell id="6OrRu1Nc6FHOVrgIj3RX-1" value="&lt;div&gt;- id: Int&lt;/div&gt;- username: String&lt;div&gt;- parola: String&lt;/div&gt;&lt;div&gt;- nume: String&lt;/div&gt;&lt;div&gt;- prenume: String&lt;/div&gt;&lt;div&gt;- varsta: Int&lt;/div&gt;&lt;div&gt;- email: String&lt;/div&gt;" style="text;strokeColor=none;fillColor=none;align=left;verticalAlign=top;spacingLeft=4;spacingRight=4;overflow=hidden;rotatable=0;points=[[0,0.5],[1,0.5]];portConstraint=eastwest;whiteSpace=wrap;html=1;" vertex="1" parent="6OrRu1Nc6FHOVrgIj3RX-0">
          <mxGeometry y="26" width="160" height="124" as="geometry" />
        </mxCell>
        <mxCell id="6OrRu1Nc6FHOVrgIj3RX-2" value="" style="line;strokeWidth=1;fillColor=none;align=left;verticalAlign=middle;spacingTop=-1;spacingLeft=3;spacingRight=3;rotatable=0;labelPosition=right;points=[];portConstraint=eastwest;strokeColor=inherit;" vertex="1" parent="6OrRu1Nc6FHOVrgIj3RX-0">
          <mxGeometry y="150" width="160" height="30" as="geometry" />
        </mxCell>
        <mxCell id="6OrRu1Nc6FHOVrgIj3RX-80" value="" style="edgeStyle=orthogonalEdgeStyle;rounded=0;orthogonalLoop=1;jettySize=auto;html=1;" edge="1" parent="WIyWlLk6GJQsqaUBKTNV-1" source="6OrRu1Nc6FHOVrgIj3RX-24" target="6OrRu1Nc6FHOVrgIj3RX-73">
          <mxGeometry relative="1" as="geometry" />
        </mxCell>
        <mxCell id="6OrRu1Nc6FHOVrgIj3RX-24" value="Manager" style="swimlane;fontStyle=1;align=center;verticalAlign=top;childLayout=stackLayout;horizontal=1;startSize=26;horizontalStack=0;resizeParent=1;resizeParentMax=0;resizeLast=0;collapsible=1;marginBottom=0;whiteSpace=wrap;html=1;" vertex="1" parent="WIyWlLk6GJQsqaUBKTNV-1">
          <mxGeometry x="350" y="376" width="160" height="156" as="geometry" />
        </mxCell>
        <mxCell id="6OrRu1Nc6FHOVrgIj3RX-43" value="- idManager: Int" style="text;strokeColor=none;fillColor=none;align=left;verticalAlign=top;spacingLeft=4;spacingRight=4;overflow=hidden;rotatable=0;points=[[0,0.5],[1,0.5]];portConstraint=eastwest;whiteSpace=wrap;html=1;" vertex="1" parent="6OrRu1Nc6FHOVrgIj3RX-24">
          <mxGeometry y="26" width="160" height="26" as="geometry" />
        </mxCell>
        <mxCell id="6OrRu1Nc6FHOVrgIj3RX-25" value="- hotel: List &amp;lt;Hotel&amp;gt;" style="text;strokeColor=none;fillColor=none;align=left;verticalAlign=top;spacingLeft=4;spacingRight=4;overflow=hidden;rotatable=0;points=[[0,0.5],[1,0.5]];portConstraint=eastwest;whiteSpace=wrap;html=1;" vertex="1" parent="6OrRu1Nc6FHOVrgIj3RX-24">
          <mxGeometry y="52" width="160" height="26" as="geometry" />
        </mxCell>
        <mxCell id="6OrRu1Nc6FHOVrgIj3RX-26" value="" style="line;strokeWidth=1;fillColor=none;align=left;verticalAlign=middle;spacingTop=-1;spacingLeft=3;spacingRight=3;rotatable=0;labelPosition=right;points=[];portConstraint=eastwest;strokeColor=inherit;" vertex="1" parent="6OrRu1Nc6FHOVrgIj3RX-24">
          <mxGeometry y="78" width="160" height="8" as="geometry" />
        </mxCell>
        <mxCell id="6OrRu1Nc6FHOVrgIj3RX-27" value="+ aici trecem cam ce actiuni credem noi ca poate face managerul" style="text;strokeColor=none;fillColor=none;align=left;verticalAlign=top;spacingLeft=4;spacingRight=4;overflow=hidden;rotatable=0;points=[[0,0.5],[1,0.5]];portConstraint=eastwest;whiteSpace=wrap;html=1;" vertex="1" parent="6OrRu1Nc6FHOVrgIj3RX-24">
          <mxGeometry y="86" width="160" height="70" as="geometry" />
        </mxCell>
        <mxCell id="6OrRu1Nc6FHOVrgIj3RX-92" value="" style="edgeStyle=orthogonalEdgeStyle;rounded=0;orthogonalLoop=1;jettySize=auto;html=1;" edge="1" parent="WIyWlLk6GJQsqaUBKTNV-1" source="6OrRu1Nc6FHOVrgIj3RX-29" target="6OrRu1Nc6FHOVrgIj3RX-91">
          <mxGeometry relative="1" as="geometry" />
        </mxCell>
        <mxCell id="6OrRu1Nc6FHOVrgIj3RX-102" style="edgeStyle=orthogonalEdgeStyle;rounded=0;orthogonalLoop=1;jettySize=auto;html=1;entryX=0.5;entryY=0;entryDx=0;entryDy=0;" edge="1" parent="WIyWlLk6GJQsqaUBKTNV-1" source="6OrRu1Nc6FHOVrgIj3RX-29" target="6OrRu1Nc6FHOVrgIj3RX-84">
          <mxGeometry relative="1" as="geometry" />
        </mxCell>
        <mxCell id="6OrRu1Nc6FHOVrgIj3RX-29" value="Client" style="swimlane;fontStyle=1;align=center;verticalAlign=top;childLayout=stackLayout;horizontal=1;startSize=26;horizontalStack=0;resizeParent=1;resizeParentMax=0;resizeLast=0;collapsible=1;marginBottom=0;whiteSpace=wrap;html=1;" vertex="1" parent="WIyWlLk6GJQsqaUBKTNV-1">
          <mxGeometry x="-90" y="376" width="160" height="200" as="geometry" />
        </mxCell>
        <mxCell id="6OrRu1Nc6FHOVrgIj3RX-42" value="&lt;div&gt;- idClient: Int&lt;/div&gt;&lt;div&gt;- sold: Float&lt;/div&gt;&lt;div&gt;- carduri: List&amp;lt;Card&amp;gt;&lt;/div&gt;" style="text;strokeColor=none;fillColor=none;align=left;verticalAlign=top;spacingLeft=4;spacingRight=4;overflow=hidden;rotatable=0;points=[[0,0.5],[1,0.5]];portConstraint=eastwest;whiteSpace=wrap;html=1;" vertex="1" parent="6OrRu1Nc6FHOVrgIj3RX-29">
          <mxGeometry y="26" width="160" height="64" as="geometry" />
        </mxCell>
        <mxCell id="6OrRu1Nc6FHOVrgIj3RX-31" value="&#xa;" style="line;strokeWidth=1;fillColor=none;align=left;verticalAlign=middle;spacingTop=-1;spacingLeft=3;spacingRight=3;rotatable=0;labelPosition=right;points=[];portConstraint=eastwest;strokeColor=inherit;" vertex="1" parent="6OrRu1Nc6FHOVrgIj3RX-29">
          <mxGeometry y="90" width="160" height="6" as="geometry" />
        </mxCell>
        <mxCell id="6OrRu1Nc6FHOVrgIj3RX-32" value="+ adaugareCard(Integer Numar, Int CVV): void&lt;div&gt;+ efectueazaPlata(float Suma): boolean&lt;/div&gt;&lt;div&gt;+ incarcaSold(card: Card, suma: Float): void&lt;/div&gt;" style="text;strokeColor=none;fillColor=none;align=left;verticalAlign=top;spacingLeft=4;spacingRight=4;overflow=hidden;rotatable=0;points=[[0,0.5],[1,0.5]];portConstraint=eastwest;whiteSpace=wrap;html=1;" vertex="1" parent="6OrRu1Nc6FHOVrgIj3RX-29">
          <mxGeometry y="96" width="160" height="104" as="geometry" />
        </mxCell>
        <mxCell id="6OrRu1Nc6FHOVrgIj3RX-33" value="Admin" style="swimlane;fontStyle=1;align=center;verticalAlign=top;childLayout=stackLayout;horizontal=1;startSize=26;horizontalStack=0;resizeParent=1;resizeParentMax=0;resizeLast=0;collapsible=1;marginBottom=0;whiteSpace=wrap;html=1;" vertex="1" parent="WIyWlLk6GJQsqaUBKTNV-1">
          <mxGeometry x="-170" y="132" width="160" height="138" as="geometry" />
        </mxCell>
        <mxCell id="6OrRu1Nc6FHOVrgIj3RX-40" value="- idAdmin: Int" style="text;strokeColor=none;fillColor=none;align=left;verticalAlign=top;spacingLeft=4;spacingRight=4;overflow=hidden;rotatable=0;points=[[0,0.5],[1,0.5]];portConstraint=eastwest;whiteSpace=wrap;html=1;" vertex="1" parent="6OrRu1Nc6FHOVrgIj3RX-33">
          <mxGeometry y="26" width="160" height="26" as="geometry" />
        </mxCell>
        <mxCell id="6OrRu1Nc6FHOVrgIj3RX-34" value="" style="line;strokeWidth=1;fillColor=none;align=left;verticalAlign=middle;spacingTop=-1;spacingLeft=3;spacingRight=3;rotatable=0;labelPosition=right;points=[];portConstraint=eastwest;strokeColor=inherit;" vertex="1" parent="6OrRu1Nc6FHOVrgIj3RX-33">
          <mxGeometry y="52" width="160" height="16" as="geometry" />
        </mxCell>
        <mxCell id="6OrRu1Nc6FHOVrgIj3RX-35" value="aici scriem actiunile adminului pe care le poate face, metodele" style="text;strokeColor=none;fillColor=none;align=left;verticalAlign=top;spacingLeft=4;spacingRight=4;overflow=hidden;rotatable=0;points=[[0,0.5],[1,0.5]];portConstraint=eastwest;whiteSpace=wrap;html=1;" vertex="1" parent="6OrRu1Nc6FHOVrgIj3RX-33">
          <mxGeometry y="68" width="160" height="70" as="geometry" />
        </mxCell>
        <mxCell id="6OrRu1Nc6FHOVrgIj3RX-103" style="edgeStyle=orthogonalEdgeStyle;rounded=0;orthogonalLoop=1;jettySize=auto;html=1;entryX=1;entryY=0;entryDx=0;entryDy=0;" edge="1" parent="WIyWlLk6GJQsqaUBKTNV-1" source="6OrRu1Nc6FHOVrgIj3RX-44" target="6OrRu1Nc6FHOVrgIj3RX-84">
          <mxGeometry relative="1" as="geometry">
            <Array as="points">
              <mxPoint x="360" y="555" />
              <mxPoint x="360" y="736" />
            </Array>
          </mxGeometry>
        </mxCell>
        <mxCell id="6OrRu1Nc6FHOVrgIj3RX-44" value="Hotel" style="swimlane;fontStyle=1;align=center;verticalAlign=top;childLayout=stackLayout;horizontal=1;startSize=26;horizontalStack=0;resizeParent=1;resizeParentMax=0;resizeLast=0;collapsible=1;marginBottom=0;whiteSpace=wrap;html=1;" vertex="1" parent="WIyWlLk6GJQsqaUBKTNV-1">
          <mxGeometry x="580" y="470" width="200" height="170" as="geometry" />
        </mxCell>
        <mxCell id="6OrRu1Nc6FHOVrgIj3RX-45" value="- idHotel: Int&lt;div&gt;- nume: String&lt;/div&gt;&lt;div&gt;- locatie: String&lt;/div&gt;&lt;div&gt;- manager: Manager&lt;/div&gt;&lt;div&gt;- camere: List &amp;lt;InventarCamere&amp;gt;&lt;/div&gt;&lt;div&gt;&lt;br&gt;&lt;/div&gt;" style="text;strokeColor=none;fillColor=none;align=left;verticalAlign=top;spacingLeft=4;spacingRight=4;overflow=hidden;rotatable=0;points=[[0,0.5],[1,0.5]];portConstraint=eastwest;whiteSpace=wrap;html=1;" vertex="1" parent="6OrRu1Nc6FHOVrgIj3RX-44">
          <mxGeometry y="26" width="200" height="94" as="geometry" />
        </mxCell>
        <mxCell id="6OrRu1Nc6FHOVrgIj3RX-46" value="" style="line;strokeWidth=1;fillColor=none;align=left;verticalAlign=middle;spacingTop=-1;spacingLeft=3;spacingRight=3;rotatable=0;labelPosition=right;points=[];portConstraint=eastwest;strokeColor=inherit;" vertex="1" parent="6OrRu1Nc6FHOVrgIj3RX-44">
          <mxGeometry y="120" width="200" height="8" as="geometry" />
        </mxCell>
        <mxCell id="6OrRu1Nc6FHOVrgIj3RX-47" value="+ nu cred ca avem ce sa adaugam ca metode aici" style="text;strokeColor=none;fillColor=none;align=left;verticalAlign=top;spacingLeft=4;spacingRight=4;overflow=hidden;rotatable=0;points=[[0,0.5],[1,0.5]];portConstraint=eastwest;whiteSpace=wrap;html=1;" vertex="1" parent="6OrRu1Nc6FHOVrgIj3RX-44">
          <mxGeometry y="128" width="200" height="42" as="geometry" />
        </mxCell>
        <mxCell id="6OrRu1Nc6FHOVrgIj3RX-48" value="InventarCamere" style="swimlane;fontStyle=1;align=center;verticalAlign=top;childLayout=stackLayout;horizontal=1;startSize=26;horizontalStack=0;resizeParent=1;resizeParentMax=0;resizeLast=0;collapsible=1;marginBottom=0;whiteSpace=wrap;html=1;" vertex="1" parent="WIyWlLk6GJQsqaUBKTNV-1">
          <mxGeometry x="640" y="710" width="160" height="150" as="geometry" />
        </mxCell>
        <mxCell id="6OrRu1Nc6FHOVrgIj3RX-49" value="&lt;div&gt;- tipCamera: TipCamera&lt;/div&gt;&lt;div&gt;- numarCamere: Int&lt;/div&gt;&lt;div&gt;- hotel: Hotel&lt;/div&gt;" style="text;strokeColor=none;fillColor=none;align=left;verticalAlign=top;spacingLeft=4;spacingRight=4;overflow=hidden;rotatable=0;points=[[0,0.5],[1,0.5]];portConstraint=eastwest;whiteSpace=wrap;html=1;" vertex="1" parent="6OrRu1Nc6FHOVrgIj3RX-48">
          <mxGeometry y="26" width="160" height="64" as="geometry" />
        </mxCell>
        <mxCell id="6OrRu1Nc6FHOVrgIj3RX-50" value="" style="line;strokeWidth=1;fillColor=none;align=left;verticalAlign=middle;spacingTop=-1;spacingLeft=3;spacingRight=3;rotatable=0;labelPosition=right;points=[];portConstraint=eastwest;strokeColor=inherit;" vertex="1" parent="6OrRu1Nc6FHOVrgIj3RX-48">
          <mxGeometry y="90" width="160" height="8" as="geometry" />
        </mxCell>
        <mxCell id="6OrRu1Nc6FHOVrgIj3RX-51" value="+ nu cred ca avem ce sa adaugam ca metode aici" style="text;strokeColor=none;fillColor=none;align=left;verticalAlign=top;spacingLeft=4;spacingRight=4;overflow=hidden;rotatable=0;points=[[0,0.5],[1,0.5]];portConstraint=eastwest;whiteSpace=wrap;html=1;" vertex="1" parent="6OrRu1Nc6FHOVrgIj3RX-48">
          <mxGeometry y="98" width="160" height="52" as="geometry" />
        </mxCell>
        <mxCell id="6OrRu1Nc6FHOVrgIj3RX-52" value="TipCamera" style="swimlane;fontStyle=1;align=center;verticalAlign=top;childLayout=stackLayout;horizontal=1;startSize=26;horizontalStack=0;resizeParent=1;resizeParentMax=0;resizeLast=0;collapsible=1;marginBottom=0;whiteSpace=wrap;html=1;" vertex="1" parent="WIyWlLk6GJQsqaUBKTNV-1">
          <mxGeometry x="370" y="770" width="160" height="184" as="geometry" />
        </mxCell>
        <mxCell id="6OrRu1Nc6FHOVrgIj3RX-53" value="&lt;div&gt;- id: Int&lt;/div&gt;&lt;div&gt;- denumire: String&lt;/div&gt;&lt;div&gt;- capacitate: Int&lt;/div&gt;&lt;div&gt;- pretPeNoapte: Float&lt;/div&gt;&lt;div&gt;- disponibilitati: List&amp;lt;DisponibilitateCamera&amp;gt;&lt;/div&gt;" style="text;strokeColor=none;fillColor=none;align=left;verticalAlign=top;spacingLeft=4;spacingRight=4;overflow=hidden;rotatable=0;points=[[0,0.5],[1,0.5]];portConstraint=eastwest;whiteSpace=wrap;html=1;" vertex="1" parent="6OrRu1Nc6FHOVrgIj3RX-52">
          <mxGeometry y="26" width="160" height="104" as="geometry" />
        </mxCell>
        <mxCell id="6OrRu1Nc6FHOVrgIj3RX-54" value="" style="line;strokeWidth=1;fillColor=none;align=left;verticalAlign=middle;spacingTop=-1;spacingLeft=3;spacingRight=3;rotatable=0;labelPosition=right;points=[];portConstraint=eastwest;strokeColor=inherit;" vertex="1" parent="6OrRu1Nc6FHOVrgIj3RX-52">
          <mxGeometry y="130" width="160" height="8" as="geometry" />
        </mxCell>
        <mxCell id="6OrRu1Nc6FHOVrgIj3RX-55" value="+ nu cred ca avem ce sa adaugam ca metode aici" style="text;strokeColor=none;fillColor=none;align=left;verticalAlign=top;spacingLeft=4;spacingRight=4;overflow=hidden;rotatable=0;points=[[0,0.5],[1,0.5]];portConstraint=eastwest;whiteSpace=wrap;html=1;" vertex="1" parent="6OrRu1Nc6FHOVrgIj3RX-52">
          <mxGeometry y="138" width="160" height="46" as="geometry" />
        </mxCell>
        <mxCell id="6OrRu1Nc6FHOVrgIj3RX-61" value="Relation" style="endArrow=open;html=1;endSize=12;startArrow=diamondThin;startSize=14;startFill=0;edgeStyle=orthogonalEdgeStyle;rounded=0;entryX=0.25;entryY=0;entryDx=0;entryDy=0;exitX=1.002;exitY=0.066;exitDx=0;exitDy=0;exitPerimeter=0;" edge="1" parent="WIyWlLk6GJQsqaUBKTNV-1" source="6OrRu1Nc6FHOVrgIj3RX-24" target="6OrRu1Nc6FHOVrgIj3RX-44">
          <mxGeometry relative="1" as="geometry">
            <mxPoint x="550" y="447" as="sourcePoint" />
            <mxPoint x="680" y="430" as="targetPoint" />
            <Array as="points">
              <mxPoint x="670" y="386" />
              <mxPoint x="670" y="420" />
              <mxPoint x="630" y="420" />
            </Array>
          </mxGeometry>
        </mxCell>
        <mxCell id="6OrRu1Nc6FHOVrgIj3RX-62" value="1" style="edgeLabel;resizable=0;html=1;align=left;verticalAlign=top;" connectable="0" vertex="1" parent="6OrRu1Nc6FHOVrgIj3RX-61">
          <mxGeometry x="-1" relative="1" as="geometry" />
        </mxCell>
        <mxCell id="6OrRu1Nc6FHOVrgIj3RX-63" value="*" style="edgeLabel;resizable=0;html=1;align=right;verticalAlign=top;" connectable="0" vertex="1" parent="6OrRu1Nc6FHOVrgIj3RX-61">
          <mxGeometry x="1" relative="1" as="geometry">
            <mxPoint x="-10" y="-30" as="offset" />
          </mxGeometry>
        </mxCell>
        <mxCell id="6OrRu1Nc6FHOVrgIj3RX-64" value="Relation" style="endArrow=open;html=1;endSize=12;startArrow=diamondThin;startSize=14;startFill=0;edgeStyle=orthogonalEdgeStyle;rounded=0;entryX=0.25;entryY=0;entryDx=0;entryDy=0;exitX=0;exitY=0;exitDx=0;exitDy=0;" edge="1" parent="WIyWlLk6GJQsqaUBKTNV-1" source="6OrRu1Nc6FHOVrgIj3RX-44" target="6OrRu1Nc6FHOVrgIj3RX-48">
          <mxGeometry relative="1" as="geometry">
            <mxPoint x="430" y="630" as="sourcePoint" />
            <mxPoint x="550" y="694" as="targetPoint" />
            <Array as="points">
              <mxPoint x="540" y="470" />
              <mxPoint x="540" y="664" />
              <mxPoint x="550" y="664" />
              <mxPoint x="550" y="692" />
              <mxPoint x="680" y="692" />
            </Array>
          </mxGeometry>
        </mxCell>
        <mxCell id="6OrRu1Nc6FHOVrgIj3RX-65" value="1" style="edgeLabel;resizable=0;html=1;align=left;verticalAlign=top;" connectable="0" vertex="1" parent="6OrRu1Nc6FHOVrgIj3RX-64">
          <mxGeometry x="-1" relative="1" as="geometry">
            <mxPoint x="-20" as="offset" />
          </mxGeometry>
        </mxCell>
        <mxCell id="6OrRu1Nc6FHOVrgIj3RX-66" value="*" style="edgeLabel;resizable=0;html=1;align=right;verticalAlign=top;" connectable="0" vertex="1" parent="6OrRu1Nc6FHOVrgIj3RX-64">
          <mxGeometry x="1" relative="1" as="geometry">
            <mxPoint x="18" y="-35" as="offset" />
          </mxGeometry>
        </mxCell>
        <mxCell id="6OrRu1Nc6FHOVrgIj3RX-67" value="Relation" style="endArrow=open;html=1;endSize=12;startArrow=diamondThin;startSize=14;startFill=0;edgeStyle=orthogonalEdgeStyle;rounded=0;exitX=0;exitY=0.25;exitDx=0;exitDy=0;entryX=1.015;entryY=0.054;entryDx=0;entryDy=0;entryPerimeter=0;" edge="1" parent="WIyWlLk6GJQsqaUBKTNV-1" source="6OrRu1Nc6FHOVrgIj3RX-48" target="6OrRu1Nc6FHOVrgIj3RX-52">
          <mxGeometry relative="1" as="geometry">
            <mxPoint x="260" y="650" as="sourcePoint" />
            <mxPoint x="420" y="650" as="targetPoint" />
          </mxGeometry>
        </mxCell>
        <mxCell id="6OrRu1Nc6FHOVrgIj3RX-69" value="1" style="edgeLabel;resizable=0;html=1;align=right;verticalAlign=top;" connectable="0" vertex="1" parent="6OrRu1Nc6FHOVrgIj3RX-67">
          <mxGeometry x="1" relative="1" as="geometry">
            <mxPoint x="14" as="offset" />
          </mxGeometry>
        </mxCell>
        <mxCell id="6OrRu1Nc6FHOVrgIj3RX-70" value="*" style="edgeLabel;resizable=0;html=1;align=right;verticalAlign=top;" connectable="0" vertex="1" parent="WIyWlLk6GJQsqaUBKTNV-1">
          <mxGeometry x="629.9999882666864" y="749.9960534043236" as="geometry" />
        </mxCell>
        <mxCell id="6OrRu1Nc6FHOVrgIj3RX-83" value="" style="edgeStyle=orthogonalEdgeStyle;rounded=0;orthogonalLoop=1;jettySize=auto;html=1;" edge="1" parent="WIyWlLk6GJQsqaUBKTNV-1" source="6OrRu1Nc6FHOVrgIj3RX-71" target="6OrRu1Nc6FHOVrgIj3RX-76">
          <mxGeometry relative="1" as="geometry" />
        </mxCell>
        <mxCell id="6OrRu1Nc6FHOVrgIj3RX-71" value="Conversatie" style="swimlane;fontStyle=1;align=center;verticalAlign=top;childLayout=stackLayout;horizontal=1;startSize=26;horizontalStack=0;resizeParent=1;resizeParentMax=0;resizeLast=0;collapsible=1;marginBottom=0;whiteSpace=wrap;html=1;" vertex="1" parent="WIyWlLk6GJQsqaUBKTNV-1">
          <mxGeometry x="130" y="376" width="160" height="144" as="geometry" />
        </mxCell>
        <mxCell id="6OrRu1Nc6FHOVrgIj3RX-72" value="&lt;div&gt;- idConversatie: Int&lt;/div&gt;&lt;div&gt;- client: Client&lt;/div&gt;&lt;div&gt;- hotel: Hotel&lt;/div&gt;&lt;div&gt;- dataIncepere: DateTime&lt;/div&gt;&lt;div&gt;- mesaje: List&amp;lt;Mesaj&amp;gt;&lt;/div&gt;" style="text;strokeColor=none;fillColor=none;align=left;verticalAlign=top;spacingLeft=4;spacingRight=4;overflow=hidden;rotatable=0;points=[[0,0.5],[1,0.5]];portConstraint=eastwest;whiteSpace=wrap;html=1;" vertex="1" parent="6OrRu1Nc6FHOVrgIj3RX-71">
          <mxGeometry y="26" width="160" height="84" as="geometry" />
        </mxCell>
        <mxCell id="6OrRu1Nc6FHOVrgIj3RX-73" value="" style="line;strokeWidth=1;fillColor=none;align=left;verticalAlign=middle;spacingTop=-1;spacingLeft=3;spacingRight=3;rotatable=0;labelPosition=right;points=[];portConstraint=eastwest;strokeColor=inherit;" vertex="1" parent="6OrRu1Nc6FHOVrgIj3RX-71">
          <mxGeometry y="110" width="160" height="8" as="geometry" />
        </mxCell>
        <mxCell id="6OrRu1Nc6FHOVrgIj3RX-74" value="+ method(type): type" style="text;strokeColor=none;fillColor=none;align=left;verticalAlign=top;spacingLeft=4;spacingRight=4;overflow=hidden;rotatable=0;points=[[0,0.5],[1,0.5]];portConstraint=eastwest;whiteSpace=wrap;html=1;" vertex="1" parent="6OrRu1Nc6FHOVrgIj3RX-71">
          <mxGeometry y="118" width="160" height="26" as="geometry" />
        </mxCell>
        <mxCell id="6OrRu1Nc6FHOVrgIj3RX-75" value="Mesaj" style="swimlane;fontStyle=1;align=center;verticalAlign=top;childLayout=stackLayout;horizontal=1;startSize=26;horizontalStack=0;resizeParent=1;resizeParentMax=0;resizeLast=0;collapsible=1;marginBottom=0;whiteSpace=wrap;html=1;" vertex="1" parent="WIyWlLk6GJQsqaUBKTNV-1">
          <mxGeometry x="130" y="560" width="160" height="134" as="geometry" />
        </mxCell>
        <mxCell id="6OrRu1Nc6FHOVrgIj3RX-76" value="&lt;div&gt;- idMesaj: Int&lt;/div&gt;&lt;div&gt;- text: String&lt;/div&gt;&lt;div&gt;- dataTrimitere: DateTime&lt;/div&gt;&lt;div&gt;- expeditor: User&lt;/div&gt;" style="text;strokeColor=none;fillColor=none;align=left;verticalAlign=top;spacingLeft=4;spacingRight=4;overflow=hidden;rotatable=0;points=[[0,0.5],[1,0.5]];portConstraint=eastwest;whiteSpace=wrap;html=1;" vertex="1" parent="6OrRu1Nc6FHOVrgIj3RX-75">
          <mxGeometry y="26" width="160" height="74" as="geometry" />
        </mxCell>
        <mxCell id="6OrRu1Nc6FHOVrgIj3RX-77" value="" style="line;strokeWidth=1;fillColor=none;align=left;verticalAlign=middle;spacingTop=-1;spacingLeft=3;spacingRight=3;rotatable=0;labelPosition=right;points=[];portConstraint=eastwest;strokeColor=inherit;" vertex="1" parent="6OrRu1Nc6FHOVrgIj3RX-75">
          <mxGeometry y="100" width="160" height="8" as="geometry" />
        </mxCell>
        <mxCell id="6OrRu1Nc6FHOVrgIj3RX-78" value="+ method(type): type" style="text;strokeColor=none;fillColor=none;align=left;verticalAlign=top;spacingLeft=4;spacingRight=4;overflow=hidden;rotatable=0;points=[[0,0.5],[1,0.5]];portConstraint=eastwest;whiteSpace=wrap;html=1;" vertex="1" parent="6OrRu1Nc6FHOVrgIj3RX-75">
          <mxGeometry y="108" width="160" height="26" as="geometry" />
        </mxCell>
        <mxCell id="6OrRu1Nc6FHOVrgIj3RX-79" value="" style="edgeStyle=orthogonalEdgeStyle;rounded=0;orthogonalLoop=1;jettySize=auto;html=1;" edge="1" parent="WIyWlLk6GJQsqaUBKTNV-1" source="6OrRu1Nc6FHOVrgIj3RX-42" target="6OrRu1Nc6FHOVrgIj3RX-72">
          <mxGeometry relative="1" as="geometry" />
        </mxCell>
        <mxCell id="6OrRu1Nc6FHOVrgIj3RX-84" value="Booking" style="swimlane;fontStyle=1;align=center;verticalAlign=top;childLayout=stackLayout;horizontal=1;startSize=26;horizontalStack=0;resizeParent=1;resizeParentMax=0;resizeLast=0;collapsible=1;marginBottom=0;whiteSpace=wrap;html=1;" vertex="1" parent="WIyWlLk6GJQsqaUBKTNV-1">
          <mxGeometry x="-90" y="736" width="240" height="260" as="geometry" />
        </mxCell>
        <mxCell id="6OrRu1Nc6FHOVrgIj3RX-85" value="&lt;div&gt;- idBooking: Int&lt;/div&gt;&lt;div&gt;- client: Client&lt;/div&gt;&lt;div&gt;- hotel: Hotel&lt;/div&gt;&lt;div&gt;- camereRezervate: List&amp;lt;BookingItem&amp;gt;&lt;/div&gt;&lt;div&gt;- total: Float&lt;/div&gt;&lt;div&gt;&lt;div&gt;- dataCheckIn: Date&lt;/div&gt;&lt;div&gt;- dataCheckOut: Date&lt;/div&gt;&lt;/div&gt;&lt;div&gt;- status: BookingStatus&lt;/div&gt;" style="text;strokeColor=none;fillColor=none;align=left;verticalAlign=top;spacingLeft=4;spacingRight=4;overflow=hidden;rotatable=0;points=[[0,0.5],[1,0.5]];portConstraint=eastwest;whiteSpace=wrap;html=1;" vertex="1" parent="6OrRu1Nc6FHOVrgIj3RX-84">
          <mxGeometry y="26" width="240" height="134" as="geometry" />
        </mxCell>
        <mxCell id="6OrRu1Nc6FHOVrgIj3RX-86" value="" style="line;strokeWidth=1;fillColor=none;align=left;verticalAlign=middle;spacingTop=-1;spacingLeft=3;spacingRight=3;rotatable=0;labelPosition=right;points=[];portConstraint=eastwest;strokeColor=inherit;" vertex="1" parent="6OrRu1Nc6FHOVrgIj3RX-84">
          <mxGeometry y="160" width="240" height="8" as="geometry" />
        </mxCell>
        <mxCell id="6OrRu1Nc6FHOVrgIj3RX-87" value="&lt;div&gt;+ checkIn(): void&lt;/div&gt;&lt;div&gt;+ checkOut(): void //cand da check-out se elibereaza camere pentru ca clientii sa vada cate mai sunt disponibile la hotel cand doresc sa faca o rezervare&lt;/div&gt;" style="text;strokeColor=none;fillColor=none;align=left;verticalAlign=top;spacingLeft=4;spacingRight=4;overflow=hidden;rotatable=0;points=[[0,0.5],[1,0.5]];portConstraint=eastwest;whiteSpace=wrap;html=1;" vertex="1" parent="6OrRu1Nc6FHOVrgIj3RX-84">
          <mxGeometry y="168" width="240" height="92" as="geometry" />
        </mxCell>
        <mxCell id="6OrRu1Nc6FHOVrgIj3RX-88" value="Card" style="swimlane;fontStyle=1;align=center;verticalAlign=top;childLayout=stackLayout;horizontal=1;startSize=26;horizontalStack=0;resizeParent=1;resizeParentMax=0;resizeLast=0;collapsible=1;marginBottom=0;whiteSpace=wrap;html=1;" vertex="1" parent="WIyWlLk6GJQsqaUBKTNV-1">
          <mxGeometry x="-330" y="376" width="160" height="130" as="geometry" />
        </mxCell>
        <mxCell id="6OrRu1Nc6FHOVrgIj3RX-89" value="&lt;div&gt;- numar: String&lt;/div&gt;&lt;div&gt;- cvv: String&lt;/div&gt;&lt;div&gt;- detinator: Client&lt;/div&gt;" style="text;strokeColor=none;fillColor=none;align=left;verticalAlign=top;spacingLeft=4;spacingRight=4;overflow=hidden;rotatable=0;points=[[0,0.5],[1,0.5]];portConstraint=eastwest;whiteSpace=wrap;html=1;" vertex="1" parent="6OrRu1Nc6FHOVrgIj3RX-88">
          <mxGeometry y="26" width="160" height="54" as="geometry" />
        </mxCell>
        <mxCell id="6OrRu1Nc6FHOVrgIj3RX-90" value="" style="line;strokeWidth=1;fillColor=none;align=left;verticalAlign=middle;spacingTop=-1;spacingLeft=3;spacingRight=3;rotatable=0;labelPosition=right;points=[];portConstraint=eastwest;strokeColor=inherit;" vertex="1" parent="6OrRu1Nc6FHOVrgIj3RX-88">
          <mxGeometry y="80" width="160" height="8" as="geometry" />
        </mxCell>
        <mxCell id="6OrRu1Nc6FHOVrgIj3RX-91" value="+ nu cred ca ar avea metoda de facut" style="text;strokeColor=none;fillColor=none;align=left;verticalAlign=top;spacingLeft=4;spacingRight=4;overflow=hidden;rotatable=0;points=[[0,0.5],[1,0.5]];portConstraint=eastwest;whiteSpace=wrap;html=1;" vertex="1" parent="6OrRu1Nc6FHOVrgIj3RX-88">
          <mxGeometry y="88" width="160" height="42" as="geometry" />
        </mxCell>
        <mxCell id="6OrRu1Nc6FHOVrgIj3RX-104" value="" style="edgeStyle=orthogonalEdgeStyle;rounded=0;orthogonalLoop=1;jettySize=auto;html=1;" edge="1" parent="WIyWlLk6GJQsqaUBKTNV-1" source="6OrRu1Nc6FHOVrgIj3RX-94" target="6OrRu1Nc6FHOVrgIj3RX-85">
          <mxGeometry relative="1" as="geometry" />
        </mxCell>
        <mxCell id="6OrRu1Nc6FHOVrgIj3RX-94" value="BookingItem" style="swimlane;fontStyle=1;align=center;verticalAlign=top;childLayout=stackLayout;horizontal=1;startSize=26;horizontalStack=0;resizeParent=1;resizeParentMax=0;resizeLast=0;collapsible=1;marginBottom=0;whiteSpace=wrap;html=1;" vertex="1" parent="WIyWlLk6GJQsqaUBKTNV-1">
          <mxGeometry x="-350" y="700" width="160" height="114" as="geometry" />
        </mxCell>
        <mxCell id="6OrRu1Nc6FHOVrgIj3RX-95" value="&lt;div&gt;- tipCamera: TipCamera&lt;/div&gt;&lt;div&gt;- cantitate: Int&lt;/div&gt;&lt;div&gt;- pretTotal: Float&lt;/div&gt;" style="text;strokeColor=none;fillColor=none;align=left;verticalAlign=top;spacingLeft=4;spacingRight=4;overflow=hidden;rotatable=0;points=[[0,0.5],[1,0.5]];portConstraint=eastwest;whiteSpace=wrap;html=1;" vertex="1" parent="6OrRu1Nc6FHOVrgIj3RX-94">
          <mxGeometry y="26" width="160" height="54" as="geometry" />
        </mxCell>
        <mxCell id="6OrRu1Nc6FHOVrgIj3RX-96" value="" style="line;strokeWidth=1;fillColor=none;align=left;verticalAlign=middle;spacingTop=-1;spacingLeft=3;spacingRight=3;rotatable=0;labelPosition=right;points=[];portConstraint=eastwest;strokeColor=inherit;" vertex="1" parent="6OrRu1Nc6FHOVrgIj3RX-94">
          <mxGeometry y="80" width="160" height="8" as="geometry" />
        </mxCell>
        <mxCell id="6OrRu1Nc6FHOVrgIj3RX-97" value="+ method(type): type" style="text;strokeColor=none;fillColor=none;align=left;verticalAlign=top;spacingLeft=4;spacingRight=4;overflow=hidden;rotatable=0;points=[[0,0.5],[1,0.5]];portConstraint=eastwest;whiteSpace=wrap;html=1;" vertex="1" parent="6OrRu1Nc6FHOVrgIj3RX-94">
          <mxGeometry y="88" width="160" height="26" as="geometry" />
        </mxCell>
        <mxCell id="6OrRu1Nc6FHOVrgIj3RX-98" value="BookingStatus" style="swimlane;fontStyle=1;align=center;verticalAlign=top;childLayout=stackLayout;horizontal=1;startSize=26;horizontalStack=0;resizeParent=1;resizeParentMax=0;resizeLast=0;collapsible=1;marginBottom=0;whiteSpace=wrap;html=1;" vertex="1" parent="WIyWlLk6GJQsqaUBKTNV-1">
          <mxGeometry x="-330" y="896" width="160" height="134" as="geometry" />
        </mxCell>
        <mxCell id="6OrRu1Nc6FHOVrgIj3RX-99" value="&lt;div&gt;- NEPLATIT&lt;/div&gt;&lt;div&gt;- PLATIT&lt;/div&gt;&lt;div&gt;- CHECKED_IN&lt;/div&gt;&lt;div&gt;- CHECKED_OUT&lt;/div&gt;" style="text;strokeColor=none;fillColor=none;align=left;verticalAlign=top;spacingLeft=4;spacingRight=4;overflow=hidden;rotatable=0;points=[[0,0.5],[1,0.5]];portConstraint=eastwest;whiteSpace=wrap;html=1;" vertex="1" parent="6OrRu1Nc6FHOVrgIj3RX-98">
          <mxGeometry y="26" width="160" height="74" as="geometry" />
        </mxCell>
        <mxCell id="6OrRu1Nc6FHOVrgIj3RX-100" value="" style="line;strokeWidth=1;fillColor=none;align=left;verticalAlign=middle;spacingTop=-1;spacingLeft=3;spacingRight=3;rotatable=0;labelPosition=right;points=[];portConstraint=eastwest;strokeColor=inherit;" vertex="1" parent="6OrRu1Nc6FHOVrgIj3RX-98">
          <mxGeometry y="100" width="160" height="8" as="geometry" />
        </mxCell>
        <mxCell id="6OrRu1Nc6FHOVrgIj3RX-101" value="+ method(type): type" style="text;strokeColor=none;fillColor=none;align=left;verticalAlign=top;spacingLeft=4;spacingRight=4;overflow=hidden;rotatable=0;points=[[0,0.5],[1,0.5]];portConstraint=eastwest;whiteSpace=wrap;html=1;" vertex="1" parent="6OrRu1Nc6FHOVrgIj3RX-98">
          <mxGeometry y="108" width="160" height="26" as="geometry" />
        </mxCell>
        <mxCell id="6OrRu1Nc6FHOVrgIj3RX-107" style="edgeStyle=orthogonalEdgeStyle;rounded=0;orthogonalLoop=1;jettySize=auto;html=1;entryX=0.013;entryY=0.695;entryDx=0;entryDy=0;entryPerimeter=0;" edge="1" parent="WIyWlLk6GJQsqaUBKTNV-1" source="6OrRu1Nc6FHOVrgIj3RX-98" target="6OrRu1Nc6FHOVrgIj3RX-85">
          <mxGeometry relative="1" as="geometry" />
        </mxCell>
        <mxCell id="6OrRu1Nc6FHOVrgIj3RX-108" value="DisponibilitateCamera" style="swimlane;fontStyle=1;align=center;verticalAlign=top;childLayout=stackLayout;horizontal=1;startSize=26;horizontalStack=0;resizeParent=1;resizeParentMax=0;resizeLast=0;collapsible=1;marginBottom=0;whiteSpace=wrap;html=1;" vertex="1" parent="WIyWlLk6GJQsqaUBKTNV-1">
          <mxGeometry x="200" y="954" width="160" height="144" as="geometry" />
        </mxCell>
        <mxCell id="6OrRu1Nc6FHOVrgIj3RX-109" value="&lt;div&gt;- id: Int&lt;/div&gt;&lt;div&gt;- tipCamera: TipCamera&lt;/div&gt;&lt;div&gt;- dataStart: Date&lt;/div&gt;&lt;div&gt;- dataEnd: Date&lt;/div&gt;&lt;div&gt;- numarDisponibil: Int&lt;/div&gt;" style="text;strokeColor=none;fillColor=none;align=left;verticalAlign=top;spacingLeft=4;spacingRight=4;overflow=hidden;rotatable=0;points=[[0,0.5],[1,0.5]];portConstraint=eastwest;whiteSpace=wrap;html=1;" vertex="1" parent="6OrRu1Nc6FHOVrgIj3RX-108">
          <mxGeometry y="26" width="160" height="84" as="geometry" />
        </mxCell>
        <mxCell id="6OrRu1Nc6FHOVrgIj3RX-110" value="" style="line;strokeWidth=1;fillColor=none;align=left;verticalAlign=middle;spacingTop=-1;spacingLeft=3;spacingRight=3;rotatable=0;labelPosition=right;points=[];portConstraint=eastwest;strokeColor=inherit;" vertex="1" parent="6OrRu1Nc6FHOVrgIj3RX-108">
          <mxGeometry y="110" width="160" height="8" as="geometry" />
        </mxCell>
        <mxCell id="6OrRu1Nc6FHOVrgIj3RX-111" value="+ method(type): type" style="text;strokeColor=none;fillColor=none;align=left;verticalAlign=top;spacingLeft=4;spacingRight=4;overflow=hidden;rotatable=0;points=[[0,0.5],[1,0.5]];portConstraint=eastwest;whiteSpace=wrap;html=1;" vertex="1" parent="6OrRu1Nc6FHOVrgIj3RX-108">
          <mxGeometry y="118" width="160" height="26" as="geometry" />
        </mxCell>
        <mxCell id="6OrRu1Nc6FHOVrgIj3RX-112" style="edgeStyle=orthogonalEdgeStyle;rounded=0;orthogonalLoop=1;jettySize=auto;html=1;entryX=0.5;entryY=0;entryDx=0;entryDy=0;" edge="1" parent="WIyWlLk6GJQsqaUBKTNV-1" source="6OrRu1Nc6FHOVrgIj3RX-53" target="6OrRu1Nc6FHOVrgIj3RX-108">
          <mxGeometry relative="1" as="geometry" />
        </mxCell>
      </root>
    </mxGraphModel>
  </diagram>
</mxfile>
